<svg width="450" height="72" viewBox="0 0 450 72" fill="none" xmlns="http://www.w3.org/2000/svg">
<path d="M39.512 18.64C38.296 17.104 36.632 15.984 34.52 15.28C32.472 14.512 30.52 14.128 28.664 14.128C27.576 14.128 26.456 14.256 25.304 14.512C24.152 14.768 23.064 15.184 22.04 15.76C21.016 16.272 20.184 16.976 19.544 17.872C18.904 18.768 18.584 19.856 18.584 21.136C18.584 23.184 19.352 24.752 20.888 25.84C22.424 26.928 24.344 27.856 26.648 28.624C29.016 29.392 31.544 30.16 34.232 30.928C36.92 31.696 39.416 32.784 41.72 34.192C44.088 35.6 46.04 37.488 47.576 39.856C49.112 42.224 49.88 45.392 49.88 49.36C49.88 53.136 49.176 56.432 47.768 59.248C46.36 62.064 44.44 64.4 42.008 66.256C39.64 68.112 36.856 69.488 33.656 70.384C30.52 71.28 27.192 71.728 23.672 71.728C19.256 71.728 15.16 71.056 11.384 69.712C7.608 68.368 4.088 66.192 0.824 63.184L11.48 51.472C13.016 53.52 14.936 55.12 17.24 56.272C19.608 57.36 22.04 57.904 24.536 57.904C25.752 57.904 26.968 57.776 28.184 57.52C29.464 57.2 30.584 56.752 31.544 56.176C32.568 55.6 33.368 54.864 33.944 53.968C34.584 53.072 34.904 52.016 34.904 50.8C34.904 48.752 34.104 47.152 32.504 46C30.968 44.784 29.016 43.76 26.648 42.928C24.28 42.096 21.72 41.264 18.968 40.432C16.216 39.6 13.656 38.48 11.288 37.072C8.92 35.664 6.936 33.808 5.336 31.504C3.8 29.2 3.032 26.16 3.032 22.384C3.032 18.736 3.736 15.536 5.144 12.784C6.616 10.032 8.536 7.72799 10.904 5.872C13.336 4.016 16.12 2.64 19.256 1.744C22.392 0.783998 25.624 0.303999 28.952 0.303999C32.792 0.303999 36.504 0.847998 40.088 1.936C43.672 3.024 46.904 4.848 49.784 7.408L39.512 18.64ZM61.613 2.032H107.789V15.856H76.589V28.528H106.061V42.352H76.589V56.176H109.517V70H61.613V2.032ZM121.506 2.032H147.81C151.266 2.032 154.53 2.384 157.602 3.088C160.738 3.728 163.458 4.848 165.762 6.44799C168.13 7.984 169.986 10.096 171.33 12.784C172.738 15.408 173.442 18.704 173.442 22.672C173.442 27.472 172.194 31.568 169.698 34.96C167.202 38.288 163.554 40.4 158.754 41.296L176.034 70H158.082L143.874 42.832H136.482V70H121.506V2.032ZM136.482 30.16H145.314C146.658 30.16 148.066 30.128 149.538 30.064C151.074 29.936 152.45 29.648 153.666 29.2C154.882 28.688 155.874 27.92 156.642 26.896C157.474 25.872 157.89 24.432 157.89 22.576C157.89 20.848 157.538 19.472 156.834 18.448C156.13 17.424 155.234 16.656 154.146 16.144C153.058 15.568 151.81 15.184 150.402 14.992C148.994 14.8 147.618 14.704 146.274 14.704H136.482V30.16ZM177.036 2.032H194.124L210.924 46.576H211.116L228.204 2.032H244.236L216.204 70H204.204L177.036 2.032ZM251.158 2.032H266.134V70H251.158V2.032ZM324.204 19.696C322.732 17.904 320.908 16.528 318.732 15.568C316.62 14.608 314.156 14.128 311.34 14.128C308.524 14.128 305.9 14.672 303.468 15.76C301.1 16.848 299.02 18.384 297.228 20.368C295.5 22.288 294.124 24.592 293.1 27.28C292.14 29.968 291.66 32.88 291.66 36.016C291.66 39.216 292.14 42.16 293.1 44.848C294.124 47.472 295.5 49.776 297.228 51.76C298.956 53.68 300.972 55.184 303.276 56.272C305.644 57.36 308.172 57.904 310.86 57.904C313.932 57.904 316.652 57.264 319.02 55.984C321.388 54.704 323.34 52.912 324.876 50.608L337.356 59.92C334.476 63.952 330.828 66.928 326.412 68.848C321.996 70.768 317.452 71.728 312.78 71.728C307.468 71.728 302.572 70.896 298.092 69.232C293.612 67.568 289.74 65.2 286.476 62.128C283.212 58.992 280.652 55.216 278.796 50.8C277.004 46.384 276.108 41.456 276.108 36.016C276.108 30.576 277.004 25.648 278.796 21.232C280.652 16.816 283.212 13.072 286.476 10C289.74 6.864 293.612 4.464 298.092 2.8C302.572 1.136 307.468 0.303999 312.78 0.303999C314.7 0.303999 316.684 0.495998 318.732 0.879997C320.844 1.2 322.892 1.744 324.876 2.512C326.924 3.28 328.876 4.304 330.732 5.584C332.588 6.864 334.252 8.432 335.724 10.288L324.204 19.696ZM346.051 2.032H392.227V15.856H361.027V28.528H390.499V42.352H361.027V56.176H393.955V70H346.051V2.032ZM439.543 18.64C438.327 17.104 436.663 15.984 434.551 15.28C432.503 14.512 430.551 14.128 428.695 14.128C427.607 14.128 426.487 14.256 425.335 14.512C424.183 14.768 423.095 15.184 422.071 15.76C421.047 16.272 420.215 16.976 419.575 17.872C418.935 18.768 418.615 19.856 418.615 21.136C418.615 23.184 419.383 24.752 420.919 25.84C422.455 26.928 424.375 27.856 426.679 28.624C429.047 29.392 431.575 30.16 434.263 30.928C436.951 31.696 439.447 32.784 441.751 34.192C444.119 35.6 446.071 37.488 447.607 39.856C449.143 42.224 449.911 45.392 449.911 49.36C449.911 53.136 449.207 56.432 447.799 59.248C446.391 62.064 444.471 64.4 442.039 66.256C439.671 68.112 436.887 69.488 433.687 70.384C430.551 71.28 427.223 71.728 423.703 71.728C419.287 71.728 415.191 71.056 411.415 69.712C407.639 68.368 404.119 66.192 400.855 63.184L411.511 51.472C413.047 53.52 414.967 55.12 417.271 56.272C419.639 57.36 422.071 57.904 424.567 57.904C425.783 57.904 426.999 57.776 428.215 57.52C429.495 57.2 430.615 56.752 431.575 56.176C432.599 55.6 433.399 54.864 433.975 53.968C434.615 53.072 434.935 52.016 434.935 50.8C434.935 48.752 434.135 47.152 432.535 46C430.999 44.784 429.047 43.76 426.679 42.928C424.311 42.096 421.751 41.264 418.999 40.432C416.247 39.6 413.687 38.48 411.319 37.072C408.951 35.664 406.967 33.808 405.367 31.504C403.831 29.2 403.063 26.16 403.063 22.384C403.063 18.736 403.767 15.536 405.175 12.784C406.647 10.032 408.567 7.72799 410.935 5.872C413.367 4.016 416.151 2.64 419.287 1.744C422.423 0.783998 425.655 0.303999 428.983 0.303999C432.823 0.303999 436.535 0.847998 440.119 1.936C443.703 3.024 446.935 4.848 449.815 7.408L439.543 18.64Z" fill="white"/>
</svg>
