<svg width="1266" height="271" viewBox="0 0 1266 271" fill="none" xmlns="http://www.w3.org/2000/svg">
<g clip-path="url(#clip0_14_2)">
<path d="M28.9788 214.767V186.108H0V96.6155H28.9788V67.6367H118.777V96.6155H148.075V122.586H115.596V99.4775H32.1602V182.913H115.596V159.512H148.075V186.094H118.777V214.754H28.9788V214.767Z" fill="#D9D9D9"/>
<path d="M189.159 214.767V186.108H160.181V96.6155H189.159V67.6367H278.958V96.6155H308.256V182.913H337.235V214.754H305.075V186.094H278.958V214.754H189.159V214.767ZM192.341 182.913H275.776V99.4775H192.341V182.913Z" fill="#D9D9D9"/>
<path d="M358.891 270.808V96.6155H387.869V67.6367H477.668V96.6155H506.966V186.108H477.668V214.767H391.051V270.808H358.891ZM391.064 182.913H474.5V99.4775H391.064V182.913Z" fill="#D9D9D9"/>
<path d="M528.635 214.765V182.924H644.23V157.127H557.614V128.148H528.635V96.6267H557.614V67.6479H676.71V99.4887H560.795V124.967H647.412V153.945H676.71V186.106H647.412V214.765H528.635Z" fill="#D9D9D9"/>
<path d="M698.366 214.768V10H730.526V214.768H698.366Z" fill="#D9D9D9"/>
<path d="M774.788 214.767V186.108H745.81V96.6155H774.788V67.6367H864.587V96.6155H893.885V186.108H864.587V214.767H774.788ZM777.983 182.913H861.419V99.4775H777.983V182.913Z" fill="#D9D9D9"/>
<path d="M944.52 214.767V186.108H915.541V96.6155H944.52V67.6367H1034.32V96.6155H1063.62V128.137H1031.14V99.4775H947.701V182.913H1031.14V153.934H1063.62V186.094H1034.32V214.754H944.52V214.767Z" fill="#D9D9D9"/>
<path d="M1078.91 214.768V10H1111.07V124.957H1136.54V96.6169H1194.5V67.6381H1226.98V99.4789H1197.68V128.138H1139.72V153.936H1197.68V182.914H1226.98V214.755H1194.5V186.096H1136.54V157.117H1111.07V214.755H1078.91V214.768Z" fill="#D9D9D9"/>
</g>
<path d="M1258.13 8.7627H1265.92V27.2627H1258.13V37H1233.89V27.2627H1226V8.7627H1233.89V0H1258.13V8.7627Z" fill="#E64725"/>
<defs>
<clipPath id="clip0_14_2">
<rect width="1227" height="260.809" fill="white" transform="translate(0 10)"/>
</clipPath>
</defs>
</svg>
