<svg width="117" height="26" viewBox="0 0 117 26" fill="none" xmlns="http://www.w3.org/2000/svg">
<g clip-path="url(#clip0_6_1856)">
<path d="M2.67829 19.8491V17.2003H0V8.92926H2.67829V6.25098H10.9777V8.92926H13.6855V11.3295H10.6836V9.19377H2.97232V16.9051H10.6836V14.7423H13.6855V17.1991H10.9777V19.8479H2.67829V19.8491Z" fill="#252525"/>
<path d="M17.483 19.8491V17.2003H14.8047V8.92926H17.483V6.25098H25.7823V8.92926H28.4902V16.9051H31.1684V19.8479H28.1961V17.1991H25.7823V19.8479H17.483V19.8491ZM17.777 16.9051H25.4883V9.19377H17.777V16.9051Z" fill="#252525"/>
<path d="M33.1699 25.0285V8.92926H35.8482V6.25098H44.1476V8.92926H46.8554V17.2003H44.1476V19.8491H36.1422V25.0285H33.1699ZM36.1435 16.9051H43.8548V9.19377H36.1435V16.9051Z" fill="#252525"/>
<path d="M48.8584 19.8488V16.9061H59.542V14.5218H51.5367V11.8435H48.8584V8.93024H51.5367V6.25195H62.5439V9.19475H51.8307V11.5495H59.8361V14.2278H62.5439V17.2001H59.8361V19.8488H48.8584Z" fill="#252525"/>
<path d="M64.5449 19.8495V0.924316H67.5172V19.8495H64.5449Z" fill="#252525"/>
<path d="M71.608 19.8491V17.2003H68.9297V8.92926H71.608V6.25098H79.9073V8.92926H82.6152V17.2003H79.9073V19.8491H71.608ZM71.9032 16.9051H79.6145V9.19377H71.9032V16.9051Z" fill="#252525"/>
<path d="M87.2945 19.8491V17.2003H84.6162V8.92926H87.2945V6.25098H95.5939V8.92926H98.3017V11.8425H95.2998V9.19377H87.5885V16.9051H95.2998V14.2268H98.3017V17.1991H95.5939V19.8479H87.2945V19.8491Z" fill="#252525"/>
<path d="M99.7158 19.8495V0.924316H102.688V11.5489H105.043V8.92965H110.399V6.25136H113.401V9.19416H110.693V11.8429H105.337V14.2272H110.693V16.9055H113.401V19.8483H110.399V17.1995H105.043V14.5212H102.688V19.8483H99.7158V19.8495Z" fill="#252525"/>
</g>
<path d="M116.279 0.80957H117V2.51953H116.279V3.41992H114.039V2.51953H113.311V0.80957H114.039V0H116.279V0.80957Z" fill="#E64725"/>
<defs>
<clipPath id="clip0_6_1856">
<rect width="113.402" height="24.1046" fill="white" transform="translate(0 0.924316)"/>
</clipPath>
</defs>
</svg>
