<svg width="414" height="66" viewBox="0 0 414 66" fill="none" xmlns="http://www.w3.org/2000/svg">
<path d="M2.38419e-07 65.2V54H36V47.4H9V38.5H2.38419e-07V27.4H9V18.4H47.1V29.6H11V36.1H38V45H47.1V56.3H38V65.2H2.38419e-07ZM66.2266 65.2V56.3H57.2266V27.4H66.2266V18.4H95.2266V27.4H104.327V38.5H93.2266V29.6H68.2266V36.1H86.2266V47.4H68.2266V54H93.2266V44.9H104.327V56.2H95.2266V65.2H66.2266ZM116.406 65.2V27.4H125.406V18.4H154.406V27.4H163.506V38.5H152.406V29.6H127.406V65.2H116.406ZM190.633 65.2V56.3H181.633V38.5H172.633V18.4H183.633V36.1H192.533V54H199.633V36.1H208.633V18.4H219.633V38.5H210.533V56.3H201.633V65.2H190.633ZM229.883 65.2V18.4H240.883V65.2H229.883ZM229.883 12V0.699998H240.883V12H229.883ZM260.074 65.2V56.3H251.074V27.4H260.074V18.4H289.074V27.4H298.174V38.5H287.074V29.6H262.074V54H287.074V45H298.174V56.3H289.074V65.2H260.074ZM316.227 65.2V56.3H307.227V27.4H316.227V18.4H345.227V27.4H354.327V38.5H343.227V29.6H318.227V36.1H336.227V47.4H318.227V54H343.227V44.9H354.327V56.2H345.227V65.2H316.227ZM366.406 65.2V54H402.406V47.4H375.406V38.5H366.406V27.4H375.406V18.4H413.506V29.6H377.406V36.1H404.406V45H413.506V56.3H404.406V65.2H366.406Z" fill="#D9D9D9"/>
</svg>
